<svg width="108" height="19" viewBox="0 0 108 19" fill="none" xmlns="http://www.w3.org/2000/svg">
<path d="M5.35206 1.968C4.34406 2 3.56806 2.384 3.02406 3.12C2.49606 3.856 2.23206 5.128 2.23206 6.936C2.23206 7.528 2.28806 7.944 2.40006 8.184C2.51206 8.408 2.56806 8.536 2.56806 8.568C1.70406 8.568 1.05606 8.392 0.624058 8.04C0.208058 7.672 5.76302e-05 7.072 5.76302e-05 6.24C5.76302e-05 5.104 0.280058 4.072 0.840058 3.144C1.40006 2.2 2.28806 1.44 3.50406 0.863999C4.73606 0.287999 6.29606 -1.43051e-06 8.18406 -1.43051e-06C8.56806 -1.43051e-06 9.08006 0.0399985 9.72006 0.119998C10.8721 0.231999 11.6881 0.287999 12.1681 0.287999C13.0161 0.287999 13.7361 0.191999 14.3281 -1.43051e-06C14.2801 0.143999 14.1921 0.463999 14.0641 0.959999C13.9361 1.44 13.7041 1.856 13.3681 2.208C13.0481 2.544 12.6081 2.768 12.0481 2.88C11.1041 2.88 9.98406 2.728 8.68806 2.424L7.68006 7.2H11.1841L10.8001 8.976H7.29606L5.35206 18H1.89606L5.35206 1.968ZM14.3037 18.096C13.1197 18.096 12.1837 17.792 11.4957 17.184C10.8077 16.576 10.4637 15.616 10.4637 14.304C10.4637 13.216 10.6877 12.008 11.1357 10.68C11.5837 9.352 12.3037 8.208 13.2957 7.248C14.2877 6.272 15.5357 5.784 17.0397 5.784C19.0877 5.784 20.1117 7.064 20.1117 9.624V9.648C20.1597 9.664 20.2477 9.672 20.3757 9.672C20.9037 9.672 21.5117 9.536 22.1997 9.264C22.8877 8.976 23.5117 8.632 24.0717 8.232L24.2877 8.88C23.8237 9.376 23.2157 9.8 22.4637 10.152C21.7277 10.488 20.9197 10.728 20.0397 10.872C19.9117 12.328 19.5837 13.6 19.0557 14.688C18.5277 15.776 17.8477 16.616 17.0157 17.208C16.1837 17.8 15.2797 18.096 14.3037 18.096ZM15.2637 15.936C15.6477 15.936 16.0317 15.72 16.4157 15.288C16.7997 14.84 17.1357 14.24 17.4237 13.488C17.7117 12.72 17.9197 11.872 18.0477 10.944C17.6157 10.848 17.3997 10.512 17.3997 9.936C17.3997 9.28 17.6477 8.848 18.1437 8.64C18.1117 8.112 18.0317 7.752 17.9037 7.56C17.7757 7.352 17.5517 7.248 17.2317 7.248C16.7037 7.248 16.1917 7.632 15.6957 8.4C15.1997 9.168 14.7997 10.088 14.4957 11.16C14.1917 12.232 14.0397 13.176 14.0397 13.992C14.0397 14.76 14.1277 15.28 14.3037 15.552C14.4797 15.808 14.7997 15.936 15.2637 15.936ZM24.8506 18.096C23.6666 18.096 22.7306 17.792 22.0426 17.184C21.3546 16.576 21.0106 15.616 21.0106 14.304C21.0106 13.216 21.2346 12.008 21.6826 10.68C22.1306 9.352 22.8506 8.208 23.8426 7.248C24.8346 6.272 26.0826 5.784 27.5866 5.784C29.6346 5.784 30.6586 7.064 30.6586 9.624V9.648C30.7066 9.664 30.7946 9.672 30.9226 9.672C31.4506 9.672 32.0586 9.536 32.7466 9.264C33.4346 8.976 34.0586 8.632 34.6186 8.232L34.8346 8.88C34.3706 9.376 33.7626 9.8 33.0106 10.152C32.2746 10.488 31.4666 10.728 30.5866 10.872C30.4586 12.328 30.1306 13.6 29.6026 14.688C29.0746 15.776 28.3946 16.616 27.5626 17.208C26.7306 17.8 25.8266 18.096 24.8506 18.096ZM25.8106 15.936C26.1946 15.936 26.5786 15.72 26.9626 15.288C27.3466 14.84 27.6826 14.24 27.9706 13.488C28.2586 12.72 28.4666 11.872 28.5946 10.944C28.1626 10.848 27.9466 10.512 27.9466 9.936C27.9466 9.28 28.1946 8.848 28.6906 8.64C28.6586 8.112 28.5786 7.752 28.4506 7.56C28.3226 7.352 28.0986 7.248 27.7786 7.248C27.2506 7.248 26.7386 7.632 26.2426 8.4C25.7466 9.168 25.3466 10.088 25.0426 11.16C24.7386 12.232 24.5866 13.176 24.5866 13.992C24.5866 14.76 24.6746 15.28 24.8506 15.552C25.0266 15.808 25.3466 15.936 25.8106 15.936ZM34.7734 18.144C33.8614 18.144 33.1014 17.832 32.4934 17.208C31.8854 16.584 31.5814 15.608 31.5814 14.28C31.5814 13.096 31.8134 11.856 32.2774 10.56C32.7574 9.248 33.4614 8.144 34.3894 7.248C35.3334 6.336 36.4534 5.88 37.7494 5.88C38.4054 5.88 38.8934 5.992 39.2134 6.216C39.5334 6.44 39.6934 6.736 39.6934 7.104V7.2L40.8694 1.68L44.4214 1.2L41.6614 14.16C41.5974 14.4 41.5654 14.656 41.5654 14.928C41.5654 15.248 41.6374 15.48 41.7814 15.624C41.9414 15.752 42.1974 15.816 42.5494 15.816C42.9974 15.816 43.3814 15.624 43.7014 15.24C44.0374 14.856 44.3014 14.344 44.4934 13.704H45.5014C44.5254 16.568 42.9174 18 40.6774 18C40.0214 18 39.4854 17.824 39.0694 17.472C38.6694 17.12 38.4214 16.608 38.3254 15.936C37.9094 16.576 37.4054 17.104 36.8134 17.52C36.2374 17.936 35.5574 18.144 34.7734 18.144ZM36.3334 15.816C36.7174 15.816 37.1014 15.64 37.4854 15.288C37.8854 14.936 38.1574 14.448 38.3014 13.824V13.704L39.4774 8.208C39.3334 7.648 39.0054 7.368 38.4934 7.368C37.8534 7.368 37.2774 7.744 36.7654 8.496C36.2534 9.232 35.8534 10.128 35.5654 11.184C35.2774 12.224 35.1334 13.144 35.1334 13.944C35.1334 14.744 35.2454 15.256 35.4694 15.48C35.7094 15.704 35.9974 15.816 36.3334 15.816ZM48.5108 4.704C47.9828 4.704 47.5348 4.52 47.1668 4.152C46.7988 3.784 46.6148 3.336 46.6148 2.808C46.6148 2.28 46.7988 1.832 47.1668 1.464C47.5348 1.08 47.9828 0.887999 48.5108 0.887999C49.0388 0.887999 49.4868 1.08 49.8548 1.464C50.2388 1.832 50.4308 2.28 50.4308 2.808C50.4308 3.336 50.2388 3.784 49.8548 4.152C49.4868 4.52 49.0388 4.704 48.5108 4.704ZM46.8788 18.144C46.1108 18.144 45.4868 17.904 45.0068 17.424C44.5428 16.944 44.3108 16.224 44.3108 15.264C44.3108 14.864 44.3748 14.344 44.5028 13.704L46.1348 6H49.5908L47.8628 14.16C47.7988 14.4 47.7668 14.656 47.7668 14.928C47.7668 15.248 47.8388 15.48 47.9828 15.624C48.1428 15.752 48.3988 15.816 48.7508 15.816C49.2148 15.816 49.6468 15.624 50.0468 15.24C50.4468 14.84 50.7348 14.328 50.9108 13.704H51.9188C51.3268 15.432 50.5668 16.608 49.6388 17.232C48.7108 17.84 47.7908 18.144 46.8788 18.144ZM54.3332 18.144C53.1492 18.144 52.2292 17.84 51.5732 17.232C50.9172 16.608 50.5892 15.64 50.5892 14.328C50.5892 13.224 50.8052 12.008 51.2372 10.68C51.6692 9.352 52.3732 8.208 53.3492 7.248C54.3252 6.272 55.5652 5.784 57.0692 5.784C58.8292 5.784 59.7092 6.552 59.7092 8.088C59.7092 8.984 59.4532 9.808 58.9412 10.56C58.4292 11.312 57.7492 11.92 56.9012 12.384C56.0532 12.832 55.1492 13.088 54.1892 13.152C54.1572 13.632 54.1412 13.952 54.1412 14.112C54.1412 14.896 54.2772 15.432 54.5492 15.72C54.8212 15.992 55.2612 16.128 55.8692 16.128C56.7332 16.128 57.4692 15.928 58.0772 15.528C58.7012 15.128 59.3812 14.52 60.1172 13.704H60.9332C59.1572 16.664 56.9572 18.144 54.3332 18.144ZM54.3812 12C54.9732 11.968 55.5332 11.76 56.0612 11.376C56.6052 10.992 57.0372 10.504 57.3572 9.912C57.6932 9.32 57.8612 8.696 57.8612 8.04C57.8612 7.384 57.6612 7.056 57.2612 7.056C56.6852 7.056 56.1172 7.56 55.5572 8.568C55.0132 9.576 54.6212 10.72 54.3812 12ZM62.4882 18.144C61.7202 18.144 61.0962 17.904 60.6162 17.424C60.1522 16.944 59.9202 16.224 59.9202 15.264C59.9202 14.864 59.9842 14.344 60.1122 13.704L62.6802 1.68L66.2322 1.2L63.4722 14.16C63.4082 14.4 63.3762 14.656 63.3762 14.928C63.3762 15.248 63.4482 15.48 63.5922 15.624C63.7522 15.752 64.0082 15.816 64.3602 15.816C64.8242 15.816 65.2562 15.624 65.6562 15.24C66.0562 14.84 66.3442 14.328 66.5202 13.704H67.5282C66.9362 15.432 66.1762 16.608 65.2482 17.232C64.3202 17.84 63.4002 18.144 62.4882 18.144ZM69.3906 18.144C68.4786 18.144 67.7186 17.832 67.1106 17.208C66.5026 16.584 66.1986 15.608 66.1986 14.28C66.1986 13.096 66.4306 11.856 66.8946 10.56C67.3746 9.248 68.0786 8.144 69.0066 7.248C69.9506 6.336 71.0706 5.88 72.3666 5.88C73.0226 5.88 73.5106 5.992 73.8306 6.216C74.1506 6.44 74.3106 6.736 74.3106 7.104V7.272L74.5746 6H78.0306L76.3026 14.16C76.2386 14.4 76.2066 14.656 76.2066 14.928C76.2066 15.616 76.5346 15.96 77.1906 15.96C77.6386 15.96 78.0226 15.752 78.3426 15.336C78.6786 14.92 78.9426 14.376 79.1346 13.704H80.1426C79.5506 15.432 78.8146 16.608 77.9346 17.232C77.0706 17.84 76.1986 18.144 75.3186 18.144C74.6466 18.144 74.1026 17.96 73.6866 17.592C73.2866 17.208 73.0466 16.656 72.9666 15.936C72.5026 16.592 71.9826 17.128 71.4066 17.544C70.8466 17.944 70.1746 18.144 69.3906 18.144ZM70.9506 15.816C71.3506 15.816 71.7426 15.632 72.1266 15.264C72.5266 14.88 72.7986 14.36 72.9426 13.704L74.0946 8.28C74.0946 8.072 74.0146 7.872 73.8546 7.68C73.6946 7.472 73.4466 7.368 73.1106 7.368C72.4706 7.368 71.8946 7.744 71.3826 8.496C70.8706 9.232 70.4706 10.128 70.1826 11.184C69.8946 12.224 69.7506 13.144 69.7506 13.944C69.7506 14.744 69.8626 15.256 70.0866 15.48C70.3266 15.704 70.6146 15.816 70.9506 15.816ZM87.8074 18.144C86.8314 18.144 86.1114 17.888 85.6474 17.376C85.1994 16.848 84.9754 16.2 84.9754 15.432C84.9754 15.096 85.0154 14.72 85.0954 14.304C85.1754 13.872 85.2554 13.456 85.3354 13.056C85.4314 12.656 85.4954 12.4 85.5274 12.288C85.6554 11.728 85.7754 11.176 85.8874 10.632C85.9994 10.088 86.0554 9.648 86.0554 9.312C86.0554 8.496 85.7674 8.088 85.1914 8.088C84.7754 8.088 84.4074 8.296 84.0874 8.712C83.7674 9.112 83.5114 9.64 83.3194 10.296L81.6874 18H78.2314L80.7754 6H84.2314L83.9674 7.248C84.7674 6.352 85.7034 5.904 86.7754 5.904C87.5914 5.904 88.2394 6.128 88.7194 6.576C89.1994 7.024 89.4394 7.704 89.4394 8.616C89.4394 9.08 89.3834 9.6 89.2714 10.176C89.1594 10.736 88.9994 11.424 88.7914 12.24C88.6634 12.736 88.5434 13.224 88.4314 13.704C88.3354 14.168 88.2874 14.536 88.2874 14.808C88.2874 15.128 88.3594 15.376 88.5034 15.552C88.6474 15.728 88.8954 15.816 89.2474 15.816C89.7274 15.816 90.1114 15.648 90.3994 15.312C90.6874 14.96 90.9754 14.424 91.2634 13.704H92.2714C91.6794 15.464 90.9914 16.648 90.2074 17.256C89.4394 17.848 88.6394 18.144 87.8074 18.144ZM94.1406 18.144C93.2286 18.144 92.4686 17.832 91.8606 17.208C91.2526 16.584 90.9486 15.608 90.9486 14.28C90.9486 13.096 91.1806 11.856 91.6446 10.56C92.1246 9.248 92.8286 8.144 93.7566 7.248C94.7006 6.336 95.8206 5.88 97.1166 5.88C97.7726 5.88 98.2606 5.992 98.5806 6.216C98.9006 6.44 99.0606 6.736 99.0606 7.104V7.2L100.237 1.68L103.789 1.2L101.029 14.16C100.965 14.4 100.933 14.632 100.933 14.856C100.933 15.496 101.261 15.816 101.917 15.816C102.205 15.816 102.461 15.768 102.685 15.672C102.621 16.472 102.333 17.088 101.821 17.52C101.325 17.936 100.733 18.144 100.045 18.144C99.4046 18.144 98.8606 17.984 98.4126 17.664C97.9806 17.328 97.6926 16.824 97.5486 16.152C96.5886 17.48 95.4526 18.144 94.1406 18.144ZM95.7006 15.816C96.0526 15.816 96.4046 15.664 96.7566 15.36C97.1246 15.056 97.3966 14.632 97.5726 14.088L97.6686 13.704L98.8446 8.208C98.7006 7.648 98.3726 7.368 97.8606 7.368C97.2206 7.368 96.6446 7.744 96.1326 8.496C95.6206 9.232 95.2206 10.128 94.9326 11.184C94.6446 12.224 94.5006 13.144 94.5006 13.944C94.5006 14.744 94.6126 15.256 94.8366 15.48C95.0766 15.704 95.3646 15.816 95.7006 15.816Z" fill="black"/>
<path d="M105.315 18.096C104.787 18.096 104.339 17.912 103.971 17.544C103.603 17.176 103.419 16.728 103.419 16.2C103.419 15.672 103.603 15.224 103.971 14.856C104.339 14.472 104.787 14.28 105.315 14.28C105.843 14.28 106.291 14.472 106.659 14.856C107.043 15.224 107.235 15.672 107.235 16.2C107.235 16.728 107.043 17.176 106.659 17.544C106.291 17.912 105.843 18.096 105.315 18.096Z" fill="#FF7426"/>
</svg>
